<svg width="25" height="24" viewBox="0 0 25 24" fill="none" xmlns="http://www.w3.org/2000/svg">
<g clip-path="url(#clip0_31_667)">
<path d="M18.9737 0H6.02632C4.56193 0.00416614 3.15871 0.587739 2.12322 1.62322C1.08774 2.65871 0.504166 4.06193 0.5 5.52632L0.5 18.4737C0.504166 19.9381 1.08774 21.3413 2.12322 22.3768C3.15871 23.4123 4.56193 23.9958 6.02632 24H18.9737C20.4381 23.9958 21.8413 23.4123 22.8768 22.3768C23.9123 21.3413 24.4958 19.9381 24.5 18.4737V5.52632C24.4958 4.06193 23.9123 2.65871 22.8768 1.62322C21.8413 0.587739 20.4381 0.00416614 18.9737 0V0ZM17.4279 13.0342H13.7853C13.7572 13.034 13.7294 13.0394 13.7034 13.05C13.6775 13.0606 13.6539 13.0763 13.6341 13.0962C13.6142 13.116 13.5985 13.1396 13.5879 13.1655C13.5773 13.1915 13.5719 13.2193 13.5721 13.2474V16.8947C13.5721 17.1791 13.4592 17.4518 13.2581 17.6528C13.057 17.8539 12.7843 17.9668 12.5 17.9668C12.2157 17.9668 11.943 17.8539 11.7419 17.6528C11.5408 17.4518 11.4279 17.1791 11.4279 16.8947V13.2474C11.4281 13.2193 11.4227 13.1915 11.4121 13.1655C11.4015 13.1396 11.3858 13.116 11.3659 13.0962C11.3461 13.0763 11.3225 13.0606 11.2966 13.05C11.2706 13.0394 11.2428 13.034 11.2147 13.0342H7.5721C7.43131 13.0342 7.2919 13.0065 7.16183 12.9526C7.03175 12.8987 6.91357 12.8198 6.81401 12.7202C6.71446 12.6206 6.63549 12.5025 6.58161 12.3724C6.52773 12.2423 6.5 12.1029 6.5 11.9621C6.5 11.8213 6.52773 11.6819 6.58161 11.5518C6.63549 11.4218 6.71446 11.3036 6.81401 11.204C6.91357 11.1045 7.03175 11.0255 7.16183 10.9716C7.2919 10.9177 7.43131 10.89 7.5721 10.89H11.2147C11.2428 10.8902 11.2706 10.8848 11.2966 10.8742C11.3225 10.8636 11.3461 10.8479 11.3659 10.828C11.3858 10.8082 11.4015 10.7846 11.4121 10.7587C11.4227 10.7327 11.4281 10.7049 11.4279 10.6768V7.03421C11.4279 6.74987 11.5408 6.47718 11.7419 6.27612C11.943 6.07506 12.2157 5.9621 12.5 5.9621C12.7843 5.9621 13.057 6.07506 13.2581 6.27612C13.4592 6.47718 13.5721 6.74987 13.5721 7.03421V10.6768C13.5713 10.7053 13.5762 10.7336 13.5865 10.7601C13.5969 10.7866 13.6124 10.8108 13.6323 10.8311C13.6522 10.8515 13.676 10.8676 13.7023 10.8785C13.7286 10.8894 13.7568 10.895 13.7853 10.8947H17.4279C17.7122 10.8947 17.9849 11.0077 18.186 11.2087C18.387 11.4098 18.5 11.6825 18.5 11.9668C18.5 12.2512 18.387 12.5239 18.186 12.7249C17.9849 12.926 17.7122 13.0389 17.4279 13.0389V13.0342Z" fill="white"/>
</g>
<defs>
<clipPath id="clip0_31_667">
<rect width="24" height="24" fill="white" transform="translate(0.5)"/>
</clipPath>
</defs>
</svg>
