<svg width="32" height="32" viewBox="0 0 32 32" fill="none" xmlns="http://www.w3.org/2000/svg">
<g clip-path="url(#clip0_31_674)">
<path d="M16.0625 0C7.27437 0 0 7.14937 0 15.9375C0 24.7256 7.27437 32 16.0625 32C24.8506 32 32 24.7256 32 15.9375C32 7.14937 24.8506 0 16.0625 0ZM23.9513 21.1744C24.6825 21.9056 24.6825 23.095 23.9513 23.8269C23.2256 24.5519 22.0362 24.5638 21.2987 23.8269L16.0625 18.5888L10.7006 23.8275C9.96938 24.5588 8.78 24.5588 8.04813 23.8275C7.31688 23.0962 7.31688 21.9069 8.04813 21.175L13.2856 15.9375L8.04813 10.7C7.31688 9.96812 7.31688 8.77875 8.04813 8.0475C8.78 7.31625 9.96938 7.31625 10.7006 8.0475L16.0625 13.2863L21.2987 8.0475C22.0287 7.3175 23.2181 7.315 23.9513 8.0475C24.6825 8.77875 24.6825 9.96812 23.9513 10.7L18.7138 15.9375L23.9513 21.1744Z" fill="#121212"/>
</g>
<defs>
<clipPath id="clip0_31_674">
<rect width="32" height="32" fill="white"/>
</clipPath>
</defs>
</svg>
