<svg width="24" height="24" viewBox="0 0 24 24" fill="none" xmlns="http://www.w3.org/2000/svg">
<g clip-path="url(#clip0_87_1216)">
<path d="M11.9995 23.8747L14.5194 23.2932L12.581 21.3548L11.9995 23.8747Z" fill="#008BD2"/>
<path d="M11.5023 22.2147L11.9193 20.408C11.9203 20.4035 11.9218 20.3993 11.923 20.395C11.925 20.3875 11.9269 20.3801 11.9293 20.3727C11.9317 20.3654 11.934 20.3592 11.9365 20.3526C11.9391 20.3459 11.9413 20.34 11.9439 20.3339C11.9471 20.3265 11.9506 20.3194 11.9541 20.3124C11.9567 20.3071 11.9595 20.302 11.9622 20.2969C11.9663 20.2894 11.9707 20.2822 11.9752 20.275C11.9781 20.2704 11.981 20.2659 11.9841 20.2615C11.989 20.2543 11.9942 20.2474 11.9996 20.2406C12.0029 20.2364 12.0061 20.2322 12.0096 20.2281C12.0149 20.2215 12.021 20.2152 12.0269 20.209C12.0293 20.2064 12.0314 20.2036 12.0339 20.2012L17.6527 14.5824C16.0841 11.356 13.1835 9.43565 9.85528 9.43565C7.41477 9.43565 5.16008 10.4803 3.50654 12.377C1.84125 14.2874 0.902887 16.9501 0.85083 19.8983C1.83535 20.3948 5.87794 22.3024 9.85528 22.3024C10.4054 22.3016 10.9552 22.2723 11.5023 22.2147Z" fill="#008BD2"/>
<path d="M12.9402 20.504L19.6112 13.833L22.037 16.2588L15.366 22.9298L12.9402 20.504Z" fill="#008BD2"/>
<path d="M9.85534 8.57786C12.224 8.57786 14.1443 6.65764 14.1443 4.28893C14.1443 1.92022 12.224 0 9.85534 0C7.48663 0 5.56641 1.92022 5.56641 4.28893C5.56641 6.65764 7.48663 8.57786 9.85534 8.57786Z" fill="#008BD2"/>
<path d="M23.1508 14.4389C23.1508 14.0996 23.0501 13.768 22.8616 13.4859C22.6731 13.2038 22.4051 12.9839 22.0917 12.8541C21.7782 12.7243 21.4333 12.6903 21.1005 12.7565C20.7678 12.8227 20.4621 12.9861 20.2222 13.226L22.6483 15.6521C22.8081 15.4932 22.9349 15.3041 23.0211 15.0959C23.1074 14.8876 23.1515 14.6643 23.1508 14.4389Z" fill="#008BD2"/>
</g>
<defs>
<clipPath id="clip0_87_1216">
<rect width="24" height="24" fill="white"/>
</clipPath>
</defs>
</svg>
